<svg xmlns="http://www.w3.org/2000/svg" xmlns:xlink="http://www.w3.org/1999/xlink" version="1.0" x="0" y="0" width="2400" height="1304.8000816171996" viewBox="79.0363996887207 75.54611953735352 181.9272006225586 98.90776092529296" preserveAspectRatio="xMidYMid meet" color-interpolation-filters="sRGB"><g><defs><linearGradient id="92" x1="0%" y1="0%" x2="100%" y2="0%"><stop offset="0%" stop-color="#fa71cd"></stop> <stop offset="100%" stop-color="#9b59b6"></stop></linearGradient><linearGradient id="93" x1="0%" y1="0%" x2="100%" y2="0%"><stop offset="0%" stop-color="#f9d423"></stop> <stop offset="100%" stop-color="#f83600"></stop></linearGradient><linearGradient id="94" x1="0%" y1="0%" x2="100%" y2="0%"><stop offset="0%" stop-color="#0064d2"></stop> <stop offset="100%" stop-color="#1cb0f6"></stop></linearGradient><linearGradient id="95" x1="0%" y1="0%" x2="100%" y2="0%"><stop offset="0%" stop-color="#f00978"></stop> <stop offset="100%" stop-color="#3f51b1"></stop></linearGradient><linearGradient id="96" x1="0%" y1="0%" x2="100%" y2="0%"><stop offset="0%" stop-color="#7873f5"></stop> <stop offset="100%" stop-color="#ec77ab"></stop></linearGradient><linearGradient id="97" x1="0%" y1="0%" x2="100%" y2="0%"><stop offset="0%" stop-color="#f9d423"></stop> <stop offset="100%" stop-color="#e14fad"></stop></linearGradient><linearGradient id="98" x1="0%" y1="0%" x2="100%" y2="0%"><stop offset="0%" stop-color="#009efd"></stop> <stop offset="100%" stop-color="#2af598"></stop></linearGradient><linearGradient id="99" x1="0%" y1="0%" x2="100%" y2="0%"><stop offset="0%" stop-color="#ffcc00"></stop> <stop offset="100%" stop-color="#00b140"></stop></linearGradient><linearGradient id="100" x1="0%" y1="0%" x2="100%" y2="0%"><stop offset="0%" stop-color="#d51007"></stop> <stop offset="100%" stop-color="#ff8177"></stop></linearGradient><linearGradient id="102" x1="0%" y1="0%" x2="100%" y2="0%"><stop offset="0%" stop-color="#a2b6df"></stop> <stop offset="100%" stop-color="#0c3483"></stop></linearGradient><linearGradient id="103" x1="0%" y1="0%" x2="100%" y2="0%"><stop offset="0%" stop-color="#7ac5d8"></stop> <stop offset="100%" stop-color="#eea2a2"></stop></linearGradient><linearGradient id="104" x1="0%" y1="0%" x2="100%" y2="0%"><stop offset="0%" stop-color="#00ecbc"></stop> <stop offset="100%" stop-color="#007adf"></stop></linearGradient><linearGradient id="105" x1="0%" y1="0%" x2="100%" y2="0%"><stop offset="0%" stop-color="#b88746"></stop> <stop offset="100%" stop-color="#fdf5a6"></stop></linearGradient></defs><g fill="#0e0906" class="icon-text-wrapper icon-svg-group iconsvg" transform="translate(80.81999969482422,77.32971954345703)"><g class="iconsvg-imagesvg" transform="translate(59.18000030517578,0)"><g><rect fill="#0e0906" fill-opacity="0" stroke-width="2" x="0" y="0" width="60" height="46.244556630313305" class="image-rect"></rect> <svg filter="url(#colors1368587657)" x="0" y="0" width="60" height="46.244556630313305" filtersec="colorsf4516169831" class="image-svg-svg primary" style="overflow: visible;"><svg xmlns="http://www.w3.org/2000/svg" xmlns:xlink="http://www.w3.org/1999/xlink" version="1.1" x="0px" y="0px" viewBox="2.259999990463257 13.204606056213379 95.4800033569336 73.59039306640625" enable-background="new 0 0 100 100" xml:space="preserve"><g><path d="M77.531,55.948c-0.389,0-0.778-0.154-1.066-0.464c-0.555-0.588-0.526-1.515,0.063-2.069l5.252-4.946   c0.589-0.555,1.515-0.526,2.069,0.063s0.526,1.515-0.063,2.069l-5.252,4.946C78.251,55.816,77.891,55.948,77.531,55.948z"></path></g><g><path d="M82.782,55.948c-0.389,0-0.777-0.154-1.066-0.464c-0.554-0.588-0.525-1.515,0.063-2.069l5.252-4.946   c0.589-0.555,1.515-0.526,2.069,0.063s0.526,1.515-0.063,2.069l-5.252,4.946C83.503,55.816,83.143,55.948,82.782,55.948z"></path></g><g><path d="M16.303,86.795c-5.381,0-9.761-4.379-9.761-9.766c0-5.381,4.38-9.754,9.761-9.754c5.38,0,9.76,4.373,9.76,9.754   C26.063,82.416,21.683,86.795,16.303,86.795z M16.303,70.203c-3.769,0-6.833,3.064-6.833,6.826c0,3.768,3.064,6.838,6.833,6.838   c3.768,0,6.832-3.07,6.832-6.838C23.135,73.268,20.07,70.203,16.303,70.203z"></path></g><g><path d="M16.303,80.855c-2.107,0-3.822-1.717-3.822-3.826s1.715-3.818,3.822-3.818c2.106,0,3.822,1.709,3.822,3.818   S18.409,80.855,16.303,80.855z M16.303,76.137c-0.495,0-0.896,0.4-0.896,0.893s0.4,0.898,0.896,0.898   c0.494,0,0.895-0.406,0.895-0.898S16.797,76.137,16.303,76.137z"></path></g><g><path d="M36.389,86.795c-5.38,0-9.757-4.379-9.757-9.766c0-5.381,4.377-9.754,9.757-9.754c5.384,0,9.764,4.373,9.764,9.754   C46.152,82.416,41.772,86.795,36.389,86.795z M36.389,70.203c-3.765,0-6.83,3.064-6.83,6.826c0,3.768,3.065,6.838,6.83,6.838   c3.769,0,6.836-3.07,6.836-6.838C43.225,73.268,40.157,70.203,36.389,70.203z"></path></g><g><path d="M36.389,80.855c-2.106,0-3.822-1.717-3.822-3.826s1.716-3.818,3.822-3.818c2.11,0,3.825,1.709,3.825,3.818   S38.499,80.855,36.389,80.855z M36.389,76.137c-0.494,0-0.895,0.4-0.895,0.893s0.4,0.898,0.895,0.898   c0.495,0,0.897-0.406,0.897-0.898S36.884,76.137,36.389,76.137z"></path></g><g><path d="M80.901,80.855c-2.109,0-3.825-1.717-3.825-3.826s1.716-3.818,3.825-3.818c2.107,0,3.822,1.709,3.822,3.818   S83.009,80.855,80.901,80.855z M80.901,76.137c-0.494,0-0.897,0.4-0.897,0.893s0.403,0.898,0.897,0.898   c0.495,0,0.895-0.406,0.895-0.898S81.396,76.137,80.901,76.137z"></path></g><g><path d="M67.533,68.453H3.724c-0.81,0-1.464-0.658-1.464-1.465v-5.367c0-0.807,0.654-1.465,1.464-1.465h63.81   c0.81,0,1.464,0.658,1.464,1.465v5.367C68.997,67.795,68.343,68.453,67.533,68.453z M5.188,65.525h60.882v-2.441H5.188V65.525z"></path></g><g><path d="M15.305,31.899c-0.18,0-0.363-0.034-0.543-0.103c-0.749-0.297-1.115-1.149-0.817-1.904l2.75-6.89   c0.3-0.749,1.152-1.109,1.903-0.817c0.75,0.297,1.115,1.149,0.818,1.904l-2.75,6.89C16.437,31.551,15.885,31.899,15.305,31.899z"></path></g><g><path d="M57.819,48.87c-0.181,0-0.366-0.034-0.544-0.103c-0.749-0.303-1.114-1.155-0.817-1.904l2.753-6.901   c0.298-0.749,1.155-1.109,1.904-0.818c0.749,0.303,1.115,1.155,0.817,1.904l-2.753,6.901C58.951,48.521,58.399,48.87,57.819,48.87z   "></path></g><g><path d="M28.481,60.598c-0.181,0-0.366-0.035-0.543-0.104c-0.749-0.303-1.115-1.156-0.818-1.904l14.48-36.279   c0.297-0.749,1.155-1.104,1.904-0.817c0.749,0.303,1.114,1.155,0.817,1.904l-14.48,36.279   C29.613,60.248,29.062,60.598,28.481,60.598z"></path></g><g><path d="M14.524,63.084H9.016c-0.81,0-1.464-0.652-1.464-1.463v-20.11c0-0.806,0.654-1.463,1.464-1.463h5.509   c0.809,0,1.464,0.657,1.464,1.463v20.11C15.988,62.432,15.333,63.084,14.524,63.084z M10.479,60.156h2.582V42.975h-2.582V60.156z"></path></g><g><path d="M40.872,63.084c-4.269,0-8.749-0.887-12.948-2.557c-5.933-2.373-11.109-6.271-14.577-10.977   c-0.187-0.252-0.286-0.561-0.286-0.869v-5.707h-2.179c-0.186,0-0.368-0.034-0.543-0.103l-5-1.99   c-0.36-0.148-0.649-0.429-0.801-0.783c-0.154-0.36-0.16-0.76-0.017-1.121l7.167-17.977c0.146-0.36,0.426-0.646,0.783-0.801   c0.352-0.154,0.758-0.16,1.12-0.017l4.352,1.738c6.858-3.745,16.756-3.939,25.562-0.429c8.877,3.545,15.795,10.36,18.239,17.908   l4.177,1.664c0.36,0.143,0.649,0.423,0.801,0.783c0.154,0.354,0.16,0.761,0.017,1.121l-7.176,17.971   c-0.3,0.75-1.146,1.109-1.903,0.818l-4.171-1.664C49.9,62.055,45.558,63.084,40.872,63.084z M15.988,48.189   c3.145,4.105,7.75,7.513,13.021,9.617c8.245,3.287,17.505,3.025,23.62-0.596c0.392-0.223,0.866-0.262,1.29-0.096l3.465,1.383   l6.092-15.255l-3.471-1.383c-0.42-0.172-0.74-0.526-0.863-0.961c-1.989-6.97-8.399-13.362-16.725-16.684   c-8.248-3.293-17.505-3.031-23.617,0.589c-0.386,0.234-0.863,0.269-1.289,0.103l-3.645-1.458L7.783,38.704l3.379,1.344h3.362   c0.809,0,1.464,0.657,1.464,1.463V48.189z"></path></g><g><path d="M80.901,86.795c-5.38,0-9.76-4.379-9.76-9.766c0-5.381,4.38-9.754,9.76-9.754c5.381,0,9.761,4.373,9.761,9.754   C90.662,82.416,86.282,86.795,80.901,86.795z M80.901,70.203c-3.768,0-6.833,3.064-6.833,6.826c0,3.768,3.065,6.838,6.833,6.838   c3.769,0,6.833-3.07,6.833-6.838C87.734,73.268,84.67,70.203,80.901,70.203z"></path></g><g><path d="M96.276,74.199h-8.311c-0.509,0-0.983-0.27-1.249-0.703c-1.261-2.064-3.434-3.293-5.815-3.293   c-2.384,0-4.557,1.229-5.814,3.293c-0.267,0.434-0.738,0.703-1.25,0.703h-6.304c-0.809,0-1.464-0.658-1.464-1.463V39.578   c0-0.806,0.655-1.463,1.464-1.463h18.972c0.571,0,1.089,0.332,1.329,0.852L97.605,60.1c0.089,0.188,0.135,0.4,0.135,0.611v12.025   C97.74,73.541,97.086,74.199,96.276,74.199z M88.746,71.271h6.066V61.037L85.57,41.042H68.997v30.229h4.06   c1.838-2.521,4.715-3.996,7.845-3.996C84.029,67.275,86.905,68.75,88.746,71.271z"></path></g><g><path d="M67.533,74.199H43.456c-0.509,0-0.983-0.27-1.249-0.703c-1.261-2.064-3.437-3.293-5.818-3.293   c-2.381,0-4.554,1.229-5.812,3.293c-0.267,0.434-0.738,0.703-1.25,0.703h-5.96c-0.512,0-0.984-0.27-1.25-0.703   c-1.258-2.064-3.431-3.293-5.814-3.293c-2.385,0-4.558,1.229-5.815,3.293c-0.266,0.434-0.737,0.703-1.249,0.703H3.724   c-0.81,0-1.464-0.658-1.464-1.463v-5.748c0-0.811,0.654-1.463,1.464-1.463h63.81c0.81,0,1.464,0.652,1.464,1.463v5.748   C68.997,73.541,68.343,74.199,67.533,74.199z M44.236,71.271h21.833v-2.818h-25.04C42.275,69.127,43.37,70.082,44.236,71.271z    M24.147,71.271h4.399c0.863-1.189,1.958-2.145,3.202-2.818H20.945C22.188,69.127,23.284,70.082,24.147,71.271z M5.188,71.271   h3.271c0.863-1.189,1.958-2.145,3.202-2.818H5.188V71.271z"></path></g><g><path d="M95.173,59.791H73.938c-0.81,0-1.464-0.658-1.464-1.465V45.759c0-0.806,0.654-1.464,1.464-1.464h15.426   c0.572,0,1.09,0.332,1.33,0.852l5.809,12.562c0.209,0.457,0.172,0.984-0.097,1.406C96.137,59.533,95.673,59.791,95.173,59.791z    M75.401,56.863h17.481l-4.454-9.64H75.401V56.863z"></path></g><g><path d="M96.276,74.199h-4.774c-0.809,0-1.464-0.658-1.464-1.463v-9.412c0-0.807,0.655-1.465,1.464-1.465h4.774   c0.81,0,1.464,0.658,1.464,1.465v9.412C97.74,73.541,97.086,74.199,96.276,74.199z M92.966,71.271h1.847v-6.484h-1.847V71.271z"></path></g><g><path d="M63.691,36.079c-0.532,0-1.044-0.292-1.304-0.8c-7.785-15.244-21.422-18.823-31.493-19.143   c-0.81-0.023-1.444-0.704-1.418-1.51c0.025-0.806,0.648-1.475,1.509-1.418c10.861,0.343,25.576,4.22,34.01,20.738   c0.368,0.721,0.083,1.601-0.638,1.973C64.143,36.028,63.917,36.079,63.691,36.079z"></path></g><g><path d="M21.06,16.868c-0.672,0-1.278-0.463-1.43-1.149c-0.174-0.789,0.323-1.567,1.112-1.744c0.061-0.011,1.513-0.337,3.896-0.566   c0.801-0.029,1.521,0.515,1.599,1.321s-0.515,1.521-1.318,1.595c-2.187,0.211-3.527,0.503-3.542,0.509   C21.271,16.856,21.165,16.868,21.06,16.868z"></path></g></svg></svg> <defs><filter id="colors1368587657"><feColorMatrix type="matrix" values="0 0 0 0 0.0546875  0 0 0 0 0.03515625  0 0 0 0 0.0234375  0 0 0 1 0" class="icon-feColorMatrix "></feColorMatrix></filter> <filter id="colorsf4516169831"><feColorMatrix type="matrix" values="0 0 0 0 0.99609375  0 0 0 0 0.99609375  0 0 0 0 0.99609375  0 0 0 1 0" class="icon-fecolormatrix"></feColorMatrix></filter> <filter id="colorsb6150983338"><feColorMatrix type="matrix" values="0 0 0 0 0  0 0 0 0 0  0 0 0 0 0  0 0 0 1 0" class="icon-fecolormatrix"></feColorMatrix></filter></defs></g></g> <g transform="translate(0,53.24455642700195)"><g fill-rule="" class="tp-name iconsvg-namesvg" transform="translate(0,0)"><g transform="scale(1)"><g><text x="0" y="27" font-weight="bold" font-family="Helvetica" font-size="35" fill="black">Southwest</text>
</g> </g></g> <g fill-rule="" class="tp-slogan iconsvg-slogansvg" fill="#dd722a" transform="translate(5,33.94000053405762)"><rect x="0" height="1" y="3.580000400543213" width="56.60500144958496"></rect> <rect height="1" y="3.580000400543213" width="56.60500144958496" x="111.7549991607666"></rect> <g transform="translate(59.60500144958496,0)"><g transform="scale(1)"><text x="-3.2" y="8" font-weight="bold" fill="#de7326" font-family="Helvetica" font-size="10.8">BUILDERS</text></g></g></g></g></g><defs v-gra="od"></defs></g></svg>
